<svg xmlns="http://www.w3.org/2000/svg" viewBox="0 0 50 27"><path d="M25.83 7.74a9.33 9.33 0 0 0-8.26 4.95 10 10 0 0 0-.76-1.19A9.34 9.34 0 0 0 3.73 9.6V1.74A1.89 1.89 0 0 0 2 0a1.88 1.88 0 0 0-2 1.74v15.49a9.33 9.33 0 0 0 17.59 4.21 9.33 9.33 0 1 0 8.24-13.7zM9.33 22.66a5.59 5.59 0 1 1 5.59-5.59 5.6 5.6 0 0 1-5.59 5.59zm16.5 0a5.59 5.59 0 1 1 5.6-5.59 5.59 5.59 0 0 1-5.62 5.59z" fill="#0061d5"/><path d="M49.61 23.25l-5.07-6.2 5.05-6.22.09-.12a1.78 1.78 0 0 0-.51-2.46 2.14 2.14 0 0 0-2.79.31L42 13.91l-4.36-5.35a2.12 2.12 0 0 0-2.81-.34l-.13.09a1.77 1.77 0 0 0-.3 2.49l5.07 6.2-5.07 6.25-.12.16a1.77 1.77 0 0 0 .55 2.44 2.14 2.14 0 0 0 2.81-.34L42 20.17l4.34 5.34a2.15 2.15 0 0 0 2.82.34l.18-.13a1.76 1.76 0 0 0 .27-2.47z" fill="#0061d5"/></svg>